<svg xmlns="http://www.w3.org/2000/svg" viewBox="0 0 512 512" width="100%" height="100%">
  <!-- Background -->
  <rect width="100%" height="100%" fill="#0f172a" rx="30" ry="30" />
  
  <!-- Cityscape -->
  <g transform="translate(256, 300)">
    <!-- Buildings -->
    <rect x="-200" y="-150" width="40" height="150" fill="#334155" />
    <rect x="-190" y="-180" width="20" height="30" fill="#334155" />
    
    <rect x="-150" y="-120" width="60" height="120" fill="#475569" />
    <rect x="-140" y="-140" width="40" height="20" fill="#475569" />
    
    <rect x="-80" y="-200" width="50" height="200" fill="#334155" />
    <rect x="-70" y="-220" width="30" height="20" fill="#334155" />
    
    <rect x="-20" y="-170" width="40" height="170" fill="#475569" />
    
    <rect x="30" y="-220" width="60" height="220" fill="#334155" />
    <rect x="40" y="-240" width="40" height="20" fill="#334155" />
    
    <rect x="100" y="-180" width="50" height="180" fill="#475569" />
    
    <rect x="160" y="-150" width="40" height="150" fill="#334155" />
    
    <!-- Windows (as dots of light) -->
    <g fill="#f8fafc">
      <!-- Building 1 -->
      <rect x="-190" y="-140" width="5" height="5" />
      <rect x="-190" y="-120" width="5" height="5" />
      <rect x="-190" y="-100" width="5" height="5" />
      <rect x="-190" y="-80" width="5" height="5" />
      <rect x="-175" y="-130" width="5" height="5" />
      <rect x="-175" y="-110" width="5" height="5" />
      <rect x="-175" y="-90" width="5" height="5" />
      <rect x="-175" y="-70" width="5" height="5" />
      
      <!-- Building 3 -->
      <rect x="-65" y="-190" width="5" height="5" />
      <rect x="-65" y="-170" width="5" height="5" />
      <rect x="-65" y="-150" width="5" height="5" />
      <rect x="-65" y="-130" width="5" height="5" />
      <rect x="-65" y="-110" width="5" height="5" />
      <rect x="-65" y="-90" width="5" height="5" />
      <rect x="-65" y="-70" width="5" height="5" />
      <rect x="-65" y="-50" width="5" height="5" />
      <rect x="-50" y="-180" width="5" height="5" />
      <rect x="-50" y="-160" width="5" height="5" />
      <rect x="-50" y="-140" width="5" height="5" />
      <rect x="-50" y="-120" width="5" height="5" />
      <rect x="-50" y="-100" width="5" height="5" />
      <rect x="-50" y="-80" width="5" height="5" />
      <rect x="-50" y="-60" width="5" height="5" />
      <rect x="-50" y="-40" width="5" height="5" />
    </g>
  </g>
  
  <!-- Smart city connections (network) -->
  <g stroke="#3b82f6" stroke-width="1.5" opacity="0.7">
    <line x1="80" y1="150" x2="150" y2="200" />
    <line x1="150" y1="200" x2="200" y2="150" />
    <line x1="200" y1="150" x2="300" y2="170" />
    <line x1="300" y1="170" x2="350" y2="120" />
    <line x1="350" y1="120" x2="270" y2="80" />
    <line x1="270" y1="80" x2="150" y2="120" />
    <line x1="150" y1="120" x2="80" y2="150" />
    <line x1="150" y1="120" x2="150" y2="200" />
    <line x1="150" y1="120" x2="200" y2="150" />
    <line x1="270" y1="80" x2="200" y2="150" />
    <line x1="300" y1="170" x2="200" y2="150" />
    <line x1="150" y1="200" x2="300" y2="170" />
  </g>
  
  <!-- Connection points -->
  <g fill="#60a5fa">
    <circle cx="80" cy="150" r="5" />
    <circle cx="150" cy="200" r="5" />
    <circle cx="200" cy="150" r="5" />
    <circle cx="300" cy="170" r="5" />
    <circle cx="350" cy="120" r="5" />
    <circle cx="270" cy="80" r="5" />
    <circle cx="150" cy="120" r="5" />
  </g>
  
  <!-- IoT Device Icons -->
  <g fill="#f8fafc">
    <!-- Traffic light -->
    <rect x="75" y="145" width="10" height="15" fill="#475569" />
    <circle cx="80" cy="148" r="2" fill="#ef4444" />
    <circle cx="80" cy="153" r="2" fill="#f59e0b" />
    <circle cx="80" cy="158" r="2" fill="#22c55e" />
    
    <!-- Camera -->
    <circle cx="150" cy="120" r="7" fill="#475569" />
    <circle cx="150" cy="120" r="3" fill="#0f172a" />
    <rect x="145" y="113" width="10" height="2" fill="#475569" />
    
    <!-- Wi-Fi tower -->
    <rect x="267" y="70" width="6" height="12" fill="#475569" />
    <path d="M270 60 Q 280 70 270 80 M270 65 Q 277 70 270 75" stroke="#f8fafc" stroke-width="1.5" fill="none" />
  </g>
  
  <!-- Success marker -->
  <circle cx="100" cy="100" r="40" fill="#22c55e" />
  <path d="M80 100 L95 115 L120 85" stroke="white" stroke-width="6" fill="none" stroke-linecap="round" stroke-linejoin="round" />
  
  <!-- Text -->
  <text x="256" y="390" font-family="Arial, sans-serif" font-size="24" text-anchor="middle" fill="white" font-weight="bold">
    Smart City Infrastructure
  </text>
  <text x="256" y="420" font-family="Arial, sans-serif" font-size="18" text-anchor="middle" fill="white">
    Phase 1 completed with excellent feedback
  </text>
</svg> 