<svg xmlns="http://www.w3.org/2000/svg" viewBox="0 0 800 600" width="800" height="600">
  <!-- Background -->
  <rect width="800" height="600" fill="#E3F2FD" />
  
  <!-- Sky -->
  <rect width="800" height="200" fill="#90CAF9" />
  
  <!-- Ocean -->
  <rect x="0" y="350" width="800" height="250" fill="#0277BD" />
  
  <!-- Ocean Waves -->
  <path d="M0,350 Q100,370 200,350 Q300,330 400,350 Q500,370 600,350 Q700,330 800,350" stroke="#0288D1" stroke-width="2" fill="none" />
  <path d="M0,370 Q100,390 200,370 Q300,350 400,370 Q500,390 600,370 Q700,350 800,370" stroke="#0288D1" stroke-width="2" fill="none" />
  <path d="M0,390 Q100,410 200,390 Q300,370 400,390 Q500,410 600,390 Q700,370 800,390" stroke="#0288D1" stroke-width="2" fill="none" />
  
  <!-- Port Land -->
  <rect x="0" y="350" width="400" height="250" fill="#78909C" />
  <rect x="400" y="350" width="200" height="50" fill="#78909C" />
  
  <!-- Warning Signs -->
  <g transform="translate(550, 320)">
    <polygon points="0,-30 25,20 -25,20" fill="#FFC107" stroke="#FF9800" stroke-width="2" />
    <text x="0" y="8" font-family="Arial" font-size="24" font-weight="bold" text-anchor="middle" fill="#795548">!</text>
  </g>
  
  <g transform="translate(650, 320)">
    <polygon points="0,-30 25,20 -25,20" fill="#FFC107" stroke="#FF9800" stroke-width="2" />
    <text x="0" y="8" font-family="Arial" font-size="24" font-weight="bold" text-anchor="middle" fill="#795548">!</text>
  </g>
  
  <!-- Environmental Hazard Markers -->
  <g transform="translate(450, 400)">
    <circle cx="0" cy="0" r="30" fill="#F44336" opacity="0.5" />
    <path d="M-15,-15 L15,15 M-15,15 L15,-15" stroke="#FFFFFF" stroke-width="4" />
  </g>
  
  <g transform="translate(550, 420)">
    <circle cx="0" cy="0" r="30" fill="#F44336" opacity="0.5" />
    <path d="M-15,-15 L15,15 M-15,15 L15,-15" stroke="#FFFFFF" stroke-width="4" />
  </g>
  
  <g transform="translate(650, 390)">
    <circle cx="0" cy="0" r="30" fill="#F44336" opacity="0.5" />
    <path d="M-15,-15 L15,15 M-15,15 L15,-15" stroke="#FFFFFF" stroke-width="4" />
  </g>
  
  <!-- Oil Slick in Water -->
  <ellipse cx="600" cy="450" rx="100" ry="50" fill="#263238" opacity="0.4" />
  <ellipse cx="700" cy="500" rx="80" ry="40" fill="#263238" opacity="0.4" />
  
  <!-- Dead Fish -->
  <g transform="translate(630, 470)">
    <path d="M0,0 Q5,-5 15,0 Q25,5 15,10 Q5,5 0,0" fill="#BDBDBD" />
    <circle cx="5" cy="2" r="1" fill="#212121" />
    <path d="M15,0 L20,5" stroke="#BDBDBD" stroke-width="2" />
  </g>
  
  <g transform="translate(670, 490)">
    <path d="M0,0 Q5,-5 15,0 Q25,5 15,10 Q5,5 0,0" fill="#BDBDBD" />
    <circle cx="5" cy="2" r="1" fill="#212121" />
    <path d="M15,0 L20,5" stroke="#BDBDBD" stroke-width="2" />
  </g>
  
  <!-- Construction Site -->
  <g transform="translate(100, 300)">
    <!-- Concrete Base -->
    <rect x="0" y="0" width="250" height="50" fill="#CFD8DC" />
    <rect x="50" y="-20" width="150" height="20" fill="#B0BEC5" />
    
    <!-- Construction Barriers -->
    <rect x="-30" y="50" width="310" height="10" fill="#FF5722" />
    <rect x="-30" y="60" width="5" height="30" fill="#FF5722" />
    <rect x="50" y="60" width="5" height="30" fill="#FF5722" />
    <rect x="125" y="60" width="5" height="30" fill="#FF5722" />
    <rect x="200" y="60" width="5" height="30" fill="#FF5722" />
    <rect x="275" y="60" width="5" height="30" fill="#FF5722" />
  </g>
  
  <!-- Construction Cranes -->
  <g transform="translate(150, 100)">
    <!-- Crane Tower -->
    <rect x="0" y="0" width="15" height="200" fill="#F57F17" />
    <rect x="-10" y="180" width="35" height="20" fill="#F57F17" />
    
    <!-- Crane Arm -->
    <rect x="7.5" y="0" width="150" height="10" fill="#F57F17" />
    <line x1="7.5" y1="0" x2="70" y2="-60" stroke="#F57F17" stroke-width="5" />
    <rect x="140" y="0" width="5" height="40" fill="#F57F17" />
    <circle cx="142.5" cy="50" r="10" fill="#F57F17" />
  </g>
  
  <g transform="translate(300, 150)">
    <!-- Crane Tower -->
    <rect x="0" y="0" width="15" height="150" fill="#F57F17" />
    <rect x="-10" y="130" width="35" height="20" fill="#F57F17" />
    
    <!-- Crane Arm -->
    <rect x="7.5" y="0" width="120" height="10" fill="#F57F17" />
    <line x1="7.5" y1="0" x2="50" y2="-40" stroke="#F57F17" stroke-width="5" />
    <rect x="110" y="0" width="5" height="30" fill="#F57F17" />
    <circle cx="112.5" cy="40" r="8" fill="#F57F17" />
  </g>
  
  <!-- Shipping Containers -->
  <g transform="translate(80, 330)">
    <rect x="0" y="0" width="40" height="20" fill="#1565C0" />
    <rect x="2" y="2" width="36" height="16" fill="#1976D2" stroke="#0D47A1" stroke-width="1" />
    <rect x="42" y="0" width="40" height="20" fill="#D32F2F" />
    <rect x="44" y="2" width="36" height="16" fill="#F44336" stroke="#B71C1C" stroke-width="1" />
    <rect x="84" y="0" width="40" height="20" fill="#388E3C" />
    <rect x="86" y="2" width="36" height="16" fill="#4CAF50" stroke="#2E7D32" stroke-width="1" />
  </g>
  
  <g transform="translate(80, 310)">
    <rect x="0" y="0" width="40" height="20" fill="#D32F2F" />
    <rect x="2" y="2" width="36" height="16" fill="#F44336" stroke="#B71C1C" stroke-width="1" />
    <rect x="42" y="0" width="40" height="20" fill="#388E3C" />
    <rect x="44" y="2" width="36" height="16" fill="#4CAF50" stroke="#2E7D32" stroke-width="1" />
  </g>
  
  <g transform="translate(80, 290)">
    <rect x="0" y="0" width="40" height="20" fill="#1565C0" />
    <rect x="2" y="2" width="36" height="16" fill="#1976D2" stroke="#0D47A1" stroke-width="1" />
  </g>
  
  <!-- Cargo Ship -->
  <g transform="translate(500, 320)">
    <!-- Ship Hull -->
    <path d="M0,0 L200,0 L180,50 L20,50 Z" fill="#455A64" />
    <rect x="40" y="-30" width="140" height="30" fill="#546E7A" />
    
    <!-- Ship Deck Structures -->
    <rect x="140" y="-50" width="40" height="20" fill="#607D8B" />
    <rect x="145" y="-60" width="10" height="10" fill="#607D8B" />
    <rect x="160" y="-60" width="10" height="10" fill="#607D8B" />
    
    <!-- Cargo Containers on Ship -->
    <rect x="50" y="-40" width="15" height="10" fill="#F44336" />
    <rect x="67" y="-40" width="15" height="10" fill="#4CAF50" />
    <rect x="84" y="-40" width="15" height="10" fill="#2196F3" />
    <rect x="101" y="-40" width="15" height="10" fill="#FFC107" />
    
    <rect x="50" y="-52" width="15" height="10" fill="#2196F3" />
    <rect x="67" y="-52" width="15" height="10" fill="#F44336" />
    <rect x="84" y="-52" width="15" height="10" fill="#FFC107" />
  </g>
  
  <!-- Environmental Protest Signs -->
  <g transform="translate(50, 250)">
    <rect x="0" y="0" width="40" height="30" fill="#FFFFFF" />
    <rect x="20" y="30" width="5" height="40" fill="#795548" />
    <text x="20" y="15" font-family="Arial" font-size="10" text-anchor="middle" fill="#F44336">SAVE</text>
    <text x="20" y="25" font-family="Arial" font-size="10" text-anchor="middle" fill="#F44336">OCEAN</text>
  </g>
  
  <g transform="translate(350, 250)">
    <rect x="0" y="0" width="40" height="30" fill="#FFFFFF" />
    <rect x="20" y="30" width="5" height="40" fill="#795548" />
    <text x="20" y="15" font-family="Arial" font-size="10" text-anchor="middle" fill="#F44336">STOP</text>
    <text x="20" y="25" font-family="Arial" font-size="10" text-anchor="middle" fill="#F44336">NOW</text>
  </g>
  
  <!-- Title -->
  <text x="400" y="50" font-family="Arial" font-size="24" font-weight="bold" text-anchor="middle" fill="#B71C1C">Port Modernization Project</text>
  <text x="400" y="80" font-family="Arial" font-size="16" text-anchor="middle" fill="#B71C1C">Environmental Concerns</text>
</svg> 